<?xml version="1.0" encoding="UTF-8"?><svg id="Layer_1" xmlns="http://www.w3.org/2000/svg" viewBox="0 0 797.63 101.4"><defs><style>.cls-1{fill:#3a73eb;}.cls-1,.cls-2{stroke-width:0px;}.cls-2{fill:#fff;}</style></defs><path class="cls-2" d="M543.08,79.9c-.63,0-1.15-.2-1.56-.62-.41-.41-.62-.93-.62-1.56V25.48c0-.67.21-1.2.62-1.59.41-.38.93-.58,1.56-.58h13.04c4.15,0,7.95.69,11.41,2.06,3.46,1.38,6.45,3.33,8.99,5.88,2.54,2.54,4.49,5.51,5.87,8.95,1.38,3.43,2.06,7.22,2.06,11.37s-.69,7.96-2.06,11.41c-1.38,3.46-3.33,6.45-5.87,8.99-2.54,2.54-5.53,4.49-8.99,5.87-3.46,1.38-7.26,2.06-11.41,2.06h-13.04ZM545.25,75.99h10.87c4.69,0,8.82-1.06,12.42-3.19,3.6-2.13,6.43-5.03,8.48-8.69,2.05-3.67,3.08-7.85,3.08-12.54s-1.03-8.85-3.08-12.5c-2.06-3.65-4.88-6.53-8.48-8.66-3.6-2.12-7.74-3.19-12.42-3.19h-10.87v48.77Z"/><path class="cls-2" d="M615.53,80.26c-3.81,0-7.21-.85-10.18-2.57-2.97-1.72-5.3-4.09-6.99-7.14-1.7-3.04-2.54-6.52-2.54-10.44s.8-7.45,2.39-10.47c1.59-3.02,3.79-5.4,6.59-7.14,2.8-1.74,6.01-2.61,9.64-2.61s6.74.83,9.5,2.5c2.75,1.67,4.9,3.96,6.45,6.88,1.54,2.93,2.32,6.3,2.32,10.11,0,.63-.2,1.12-.58,1.49s-.89.54-1.52.54h-31.88v-3.77h33.04l-3.19,2.39c.09-3.14-.43-5.91-1.59-8.33-1.16-2.41-2.82-4.31-4.96-5.69-2.15-1.38-4.67-2.06-7.58-2.06-2.75,0-5.2.69-7.35,2.06-2.15,1.38-3.84,3.27-5.07,5.69-1.23,2.42-1.85,5.22-1.85,8.4s.65,5.92,1.96,8.34c1.3,2.41,3.12,4.31,5.43,5.69,2.32,1.38,4.98,2.06,7.97,2.06,1.89,0,3.78-.33,5.69-.98,1.91-.65,3.41-1.51,4.53-2.57.38-.39.85-.59,1.41-.62.55-.03,1.02.13,1.41.47.53.43.8.92.83,1.45.02.53-.21,1.01-.69,1.45-1.55,1.4-3.56,2.56-6.05,3.48-2.49.92-4.87,1.38-7.14,1.38Z"/><path class="cls-2" d="M658.29,80.34c-2.51,0-5.14-.46-7.9-1.38s-5.05-2.46-6.89-4.64c-.38-.49-.54-1-.47-1.56s.38-1.03.91-1.41c.49-.34,1.01-.46,1.56-.36.56.09,1.01.36,1.35.8,1.4,1.64,3.1,2.79,5.11,3.44,2,.65,4.19.98,6.56.98,4.06,0,6.93-.72,8.62-2.17,1.69-1.45,2.54-3.14,2.54-5.07s-.91-3.44-2.72-4.67c-1.81-1.24-4.6-2.12-8.37-2.65-4.83-.67-8.4-1.98-10.72-3.91-2.33-1.93-3.48-4.17-3.48-6.74,0-2.41.61-4.46,1.81-6.12,1.21-1.67,2.87-2.92,4.97-3.77,2.1-.85,4.5-1.27,7.21-1.27,3.28,0,6.06.59,8.33,1.77,2.27,1.18,4.11,2.77,5.51,4.75.39.49.52,1,.4,1.56-.12.56-.49,1-1.12,1.34-.48.25-.99.32-1.52.22-.53-.09-.99-.38-1.38-.87-1.21-1.54-2.67-2.72-4.38-3.51-1.72-.8-3.71-1.2-5.98-1.2-3.04,0-5.41.65-7.1,1.96-1.7,1.3-2.54,2.88-2.54,4.71,0,1.26.35,2.35,1.05,3.3.7.94,1.85,1.74,3.44,2.39,1.59.65,3.72,1.17,6.38,1.56,3.62.49,6.48,1.3,8.58,2.46,2.1,1.16,3.6,2.5,4.49,4.03.9,1.52,1.34,3.15,1.34,4.89,0,2.27-.72,4.25-2.17,5.94-1.45,1.69-3.35,2.98-5.72,3.88-2.37.89-4.93,1.34-7.68,1.34Z"/><path class="cls-2" d="M689.88,31.93c-.92,0-1.7-.33-2.36-.99-.65-.65-.98-1.46-.98-2.43,0-1.11.35-1.94,1.05-2.5.7-.55,1.49-.83,2.36-.83.82,0,1.58.28,2.28.83.7.56,1.05,1.39,1.05,2.5,0,.97-.33,1.77-.98,2.43-.65.66-1.46.99-2.43.99ZM689.95,79.9c-.63,0-1.15-.2-1.56-.62-.41-.41-.62-.93-.62-1.56v-35.29c0-.67.21-1.21.62-1.59.41-.38.93-.58,1.56-.58.67,0,1.2.2,1.59.58.38.38.58.92.58,1.59v35.29c0,.63-.2,1.14-.58,1.56-.39.41-.92.62-1.59.62Z"/><path class="cls-2" d="M727.42,80.34c-3.96,0-7.46-.87-10.5-2.61-3.04-1.74-5.43-4.13-7.18-7.17-1.74-3.04-2.61-6.52-2.61-10.44s.9-7.46,2.68-10.5c1.79-3.04,4.22-5.43,7.29-7.17,3.06-1.74,6.51-2.61,10.32-2.61s7.45.87,10.47,2.61c3.02,1.74,5.4,4.13,7.14,7.17,1.74,3.04,2.61,6.55,2.61,10.5l-2.54,2.9c0,3.38-.75,6.38-2.25,8.99-1.49,2.61-3.57,4.65-6.23,6.12-2.66,1.47-5.72,2.21-9.2,2.21ZM727.71,95.04c-4.01,0-7.43-.75-10.25-2.25-2.83-1.49-5.16-3.4-7-5.72-.38-.49-.58-.99-.58-1.52s.25-.99.72-1.38c.49-.34,1.06-.46,1.71-.36s1.14.41,1.49.94c1.49,1.79,3.4,3.27,5.72,4.46,2.32,1.19,5.04,1.77,8.19,1.77s5.67-.72,8.01-2.17c2.35-1.45,4.19-3.44,5.54-5.98,1.35-2.54,2.03-5.38,2.03-8.51v-11.53l1.96-2.68h2.39v14.21c0,3.91-.87,7.44-2.61,10.58-1.75,3.14-4.11,5.61-7.11,7.43-2.99,1.81-6.4,2.72-10.21,2.72ZM727.42,76.28c3.09,0,5.83-.69,8.22-2.06,2.39-1.38,4.27-3.29,5.61-5.72,1.35-2.44,2.03-5.23,2.03-8.37s-.67-6-2.03-8.44c-1.35-2.44-3.22-4.35-5.61-5.72-2.39-1.38-5.13-2.06-8.22-2.06s-5.85.69-8.26,2.06c-2.42,1.38-4.3,3.28-5.65,5.72-1.35,2.44-2.03,5.25-2.03,8.44s.67,5.93,2.03,8.37c1.35,2.43,3.23,4.35,5.65,5.72,2.41,1.38,5.17,2.06,8.26,2.06Z"/><path class="cls-2" d="M763.36,79.9c-.63,0-1.14-.2-1.56-.62s-.62-.93-.62-1.56v-35.29c0-.67.2-1.21.62-1.59s.93-.58,1.56-.58c.67,0,1.21.2,1.59.58s.58.92.58,1.59v35.29c0,.63-.2,1.14-.58,1.56s-.92.62-1.59.62ZM795.46,79.9c-.63,0-1.14-.2-1.56-.62s-.62-.93-.62-1.56v-19.5c0-3.19-.62-5.82-1.85-7.9-1.23-2.08-2.9-3.64-5-4.67-2.1-1.04-4.48-1.56-7.14-1.56s-4.96.49-7.03,1.49c-2.07.99-3.72,2.35-4.93,4.09-1.21,1.74-1.81,3.69-1.81,5.87h-3.62c.2-2.99,1.09-5.69,2.68-8.08,1.59-2.39,3.67-4.27,6.23-5.65,2.56-1.38,5.39-2.06,8.48-2.06,3.48,0,6.6.71,9.38,2.14,2.77,1.43,4.96,3.5,6.56,6.23,1.59,2.73,2.39,6.1,2.39,10.11v19.5c0,.63-.2,1.14-.62,1.56-.41.41-.93.62-1.56.62Z"/><path class="cls-2" d="M158.97,84.06c-.54,0-1.01-.2-1.42-.58-.42-.39-.7-.83-.84-1.32l-15.14-51.94c-.24-.88-.17-1.64.22-2.3.39-.66,1-.99,1.83-.99.49,0,.92.11,1.28.33.36.22.64.67.84,1.36l14.12,48.86h-1.76l13.46-46.96c.1-.39.35-.72.77-.99.41-.27.84-.4,1.28-.4.49,0,.93.13,1.32.4.39.27.66.63.8,1.06l13.46,46.89h-1.76l14.12-49.08c.24-.98.95-1.46,2.12-1.46.83,0,1.43.32,1.79.95.37.63.43,1.42.18,2.34l-15.07,51.94c-.2.63-.5,1.11-.92,1.42-.41.32-.86.48-1.35.48-.58,0-1.07-.18-1.46-.55-.39-.37-.65-.82-.8-1.35l-13.31-47.11h1.75l-13.16,47.11c-.2.58-.5,1.05-.92,1.39s-.89.51-1.43.51Z"/><path class="cls-2" d="M224.81,84.5c-3.9,0-7.41-.89-10.5-2.67-3.1-1.78-5.54-4.21-7.31-7.32-1.79-3.1-2.67-6.57-2.67-10.42s.89-7.4,2.67-10.49c1.77-3.1,4.21-5.54,7.31-7.32,3.1-1.78,6.6-2.67,10.5-2.67s7.39.89,10.46,2.67c3.07,1.78,5.49,4.22,7.28,7.32,1.77,3.1,2.67,6.6,2.67,10.49l-1.83,2.93c0,3.32-.82,6.29-2.45,8.92-1.63,2.63-3.84,4.72-6.62,6.26s-5.95,2.3-9.51,2.3ZM224.81,80.41c3.07,0,5.82-.72,8.23-2.16,2.42-1.43,4.32-3.39,5.71-5.85,1.39-2.46,2.08-5.23,2.08-8.3s-.7-5.91-2.08-8.38c-1.39-2.46-3.29-4.41-5.71-5.85-2.41-1.43-5.16-2.15-8.23-2.15s-5.76.72-8.2,2.15c-2.43,1.44-4.36,3.39-5.77,5.85-1.42,2.46-2.13,5.26-2.13,8.38s.71,5.84,2.13,8.3c1.41,2.46,3.34,4.42,5.77,5.85,2.44,1.44,5.17,2.16,8.2,2.16ZM243.1,84.06c-.68,0-1.23-.21-1.65-.62-.42-.42-.62-.94-.62-1.58v-13.38l1.39-4.39h3v17.77c0,.64-.2,1.16-.58,1.58-.39.41-.9.62-1.54.62Z"/><path class="cls-2" d="M267.75,84.13c-.93,0-1.61-.51-2.05-1.54l-16.68-35.69c-.2-.54-.2-1.06,0-1.57.2-.52.56-.89,1.1-1.14s1.07-.27,1.58-.07.89.56,1.13,1.1l16.39,35.4h-2.71l16.09-35.47c.24-.54.65-.9,1.21-1.1.56-.19,1.11-.17,1.65.08.54.24.91.62,1.13,1.13s.21,1.04-.04,1.57l-16.46,35.77c-.49,1.02-1.27,1.54-2.34,1.54Z"/><path class="cls-2" d="M309.15,83.11c-.64.29-1.2.37-1.68.22-.49-.14-.88-.54-1.17-1.17l-16.02-35.11c-.3-.63-.37-1.19-.22-1.68.14-.49.54-.88,1.17-1.17.64-.29,1.2-.36,1.68-.22.49.15.88.54,1.17,1.17l16.02,35.11c.29.64.36,1.2.22,1.68-.15.49-.54.88-1.17,1.17ZM301.39,101.4c-.29,0-.63-.07-1.02-.22-1.32-.54-1.68-1.43-1.1-2.7l24.58-53.25c.58-1.22,1.49-1.58,2.7-1.1,1.32.54,1.68,1.43,1.1,2.7l-24.58,53.25c-.44.88-1,1.32-1.68,1.32Z"/><path class="cls-2" d="M359.62,84.06c-.64,0-1.16-.21-1.58-.62-.41-.42-.62-.94-.62-1.58V29.13c0-.68.21-1.22.62-1.61.42-.39.94-.58,1.58-.58h13.17c4.19,0,8.03.7,11.52,2.08,3.48,1.39,6.51,3.37,9.07,5.93s4.53,5.57,5.92,9.03c1.39,3.46,2.08,7.29,2.08,11.48s-.7,8.04-2.08,11.52c-1.39,3.49-3.36,6.51-5.92,9.07-2.56,2.57-5.59,4.54-9.07,5.93-3.49,1.39-7.33,2.08-11.52,2.08h-13.17ZM361.81,80.11h10.98c4.73,0,8.91-1.07,12.54-3.21,3.63-2.15,6.48-5.07,8.56-8.78,2.07-3.7,3.11-7.92,3.11-12.66s-1.04-8.93-3.11-12.61c-2.08-3.68-4.93-6.6-8.56-8.74-3.63-2.14-7.82-3.21-12.54-3.21h-10.98v49.22Z"/><path class="cls-2" d="M430.64,84.5c-3.9,0-7.4-.89-10.49-2.67-3.1-1.78-5.54-4.21-7.32-7.32-1.78-3.1-2.67-6.57-2.67-10.42s.89-7.4,2.67-10.49c1.78-3.1,4.22-5.54,7.32-7.32,3.1-1.78,6.6-2.67,10.49-2.67s7.39.89,10.46,2.67c3.07,1.78,5.5,4.22,7.28,7.32,1.78,3.1,2.67,6.6,2.67,10.49s-.89,7.33-2.67,10.42c-1.78,3.1-4.21,5.54-7.28,7.32-3.07,1.78-6.56,2.67-10.46,2.67ZM430.64,80.41c3.07,0,5.82-.72,8.23-2.16,2.41-1.43,4.32-3.39,5.7-5.85,1.39-2.46,2.08-5.26,2.08-8.38s-.69-5.84-2.08-8.3c-1.39-2.46-3.29-4.41-5.7-5.85-2.42-1.43-5.16-2.15-8.23-2.15s-5.76.72-8.19,2.15c-2.44,1.44-4.36,3.39-5.78,5.85-1.42,2.46-2.12,5.26-2.12,8.38s.7,5.84,2.12,8.3,3.34,4.42,5.78,5.85c2.43,1.44,5.17,2.16,8.19,2.16Z"/><path class="cls-2" d="M480.31,84.5c-4,0-7.54-.88-10.61-2.64s-5.49-4.17-7.24-7.24-2.63-6.58-2.63-10.54.9-7.53,2.71-10.6c1.8-3.07,4.25-5.49,7.35-7.24,3.1-1.76,6.57-2.63,10.42-2.63s7.52.88,10.57,2.63c3.05,1.76,5.45,4.17,7.21,7.24s2.63,6.61,2.63,10.6l-2.56,2.93c0,3.41-.76,6.43-2.27,9.07-1.51,2.63-3.61,4.69-6.29,6.18-2.68,1.49-5.78,2.23-9.29,2.23ZM480.6,99.35c-4.05,0-7.5-.76-10.35-2.27-2.85-1.51-5.2-3.43-7.06-5.77-.39-.49-.58-1-.58-1.54s.24-1,.73-1.39c.49-.34,1.06-.46,1.72-.36.65.1,1.15.41,1.5.95,1.51,1.8,3.43,3.3,5.77,4.5,2.34,1.2,5.1,1.79,8.27,1.79s5.71-.73,8.08-2.2c2.36-1.46,4.23-3.47,5.6-6.03,1.36-2.56,2.05-5.43,2.05-8.6v-11.63l1.98-2.71h2.41v14.34c0,3.95-.88,7.51-2.63,10.68-1.76,3.17-4.15,5.67-7.17,7.49-3.02,1.83-6.46,2.74-10.31,2.74ZM480.31,80.41c3.12,0,5.89-.7,8.3-2.09,2.42-1.39,4.3-3.32,5.67-5.77,1.36-2.46,2.05-5.28,2.05-8.45s-.68-6.05-2.05-8.52c-1.37-2.46-3.26-4.39-5.67-5.78-2.41-1.39-5.18-2.08-8.3-2.08s-5.91.7-8.34,2.08c-2.44,1.39-4.34,3.32-5.71,5.78-1.36,2.46-2.05,5.3-2.05,8.52s.68,5.99,2.05,8.45c1.37,2.46,3.27,4.39,5.71,5.77,2.43,1.39,5.21,2.09,8.34,2.09Z"/><path class="cls-1" d="M14.58,53.19c.93-7,6.1-12.15,13.17-12.94,2.57-.29,5.19-.22,7.78-.26,2.6-.04,5.2.09,7.79-.04,2.08-.1,3.9.51,5.4,1.8,2.21,1.9,4.34,3.91,6.36,6.01,4.62,4.8,10.15,7.29,16.87,7.09,4.59-.13,8.46,1.52,11.32,5.19.65.83,1.19,1.8,1.57,2.78,1.55,3.98,3.98,7.11,7.99,8.87.25.11.45.6.47.93.35,6.23.66,12.45.99,18.68.07,1.32.19,2.64.29,4.09-1.78,0-3.49.03-5.2-.03-.26,0-.57-.37-.74-.64-2.27-3.61-3.36-7.53-3.35-11.82,0-5.89-2.23-10.88-6.62-14.83-3.21-2.88-6.95-4.54-11.31-4.51-4.79.03-8.87-1.67-12.37-4.88-1.87-1.71-3.72-3.43-6.02-4.59-5.69-2.85-11.47-2.78-17.4-.78-2.38.81-4.83,1.56-7.3,1.94-3.44.53-6.69-.38-9.69-2.08Z"/><path class="cls-1" d="M71.7,36.05c-.69-.26-1.36-.59-1.99-.97.51.26,1.15.59,1.99.97ZM73.95,12.75c0,.23,0,.49-.03.72.03.03.05.05.05.08.03-.26,0-.54-.03-.79Z"/><path class="cls-1" d="M13.49,57.32c2.26.64,4.34,1.4,6.49,1.8,4.07.76,8.01,0,11.81-1.56,4-1.64,8.1-2.05,12.31-1.08,2.41.55,4.54,1.71,6.48,3.24,2.01,1.59,3.97,3.26,6.09,4.69,2.99,2.03,6.37,2.99,9.99,3.13,8.54.32,14.86,6.97,14.77,15.54-.05,4.18.8,8.12,2.94,11.75.08.13.13.28.23.52-.33.02-.57.06-.81.06-2.08,0-4.16.02-6.23,0-2.16-.02-3.18-1.12-3.15-3.3.04-3.05.07-6.1.07-9.16,0-.84-.05-1.69-.2-2.52-.67-3.65-3.43-6.03-7.14-6.1-2.5-.05-5.01-.13-7.5.02-3.07.18-5.6-.88-7.8-2.88-2.74-2.5-5.84-4.31-9.49-5.1-4.41-.95-8.7-.6-12.9,1.07-3.41,1.35-6.92,2.23-10.64,1.85-2.46-.25-4.77-.96-6.92-2.15-.24-.13-.52-.55-.47-.77.68-3.07,1.41-6.12,2.1-9.05Z"/><path class="cls-1" d="M93.3,67.66c-1.57-1.02-2.59-2.17-3.39-3.51-.48-.8-.9-1.65-1.27-2.52-2.92-6.92-8.79-10.85-16.31-10.8-2.95.02-5.83-.2-8.56-1.44-2.43-1.1-4.54-2.63-6.45-4.46-1.64-1.57-3.31-3.11-4.96-4.67-.08-.08-.15-.18-.32-.39,5.44-.25,8.66-2.99,9.69-8.32.9,1.24,1.67,2.42,2.56,3.52,4.15,5.15,10,6.85,16.31,4.89,1.69-.53,3.46-.83,5.2-1.22.7-.16,1.2.08,1.67.66,3.25,4.03,4.9,8.7,5.26,13.8.33,4.72.39,9.46.57,14.47Z"/><path class="cls-1" d="M46.51,83.43c-3.82-2.95-7.98-4-12.44-3.95-3.12.03-6.1.84-9,1.95-3.86,1.48-7.83,2.22-11.92,1.28-1.72-.4-3.35-1.19-4.99-1.86-.24-.1-.54-.62-.48-.84.89-3.01,1.84-6.01,2.79-9.08.1.03.25.04.38.11,6.07,3.06,12.24,3.03,18.48.61,2.72-1.06,5.48-1.85,8.42-1.79,4.12.08,7.85,1.29,11.09,3.9.27.22.52.47.85.78-3.9,1.87-4.3,5-3.18,8.89Z"/><path class="cls-1" d="M51.11,95.36c-.22.02-.4.05-.58.05-5.06,0-10.13.02-15.19-.02-.51,0-1.13-.28-1.5-.63-2.77-2.62-5.14-5.59-7.23-8.77-.14-.21-.26-.43-.45-.76,4.77-1.79,9.51-2.42,14.41-.83,5.44,1.77,8.31,6.01,10.55,10.97Z"/><path class="cls-1" d="M1.28,95.4c.07-.28.09-.41.14-.52,1.64-3.52,3.28-7.05,4.96-10.67,4.34,2.68,9.09,3.36,14.28,2.54-.63,1.09-1.16,2.06-1.73,3.01-1.04,1.72-2.1,3.43-3.18,5.13-.15.23-.47.49-.72.5-4.54.03-9.08.02-13.74.02Z"/><path class="cls-1" d="M12.59,51.59s.81-4.93,3.17-6.87c0,0-6.87-5.18-11.45-5.96-4.29-.73-5.62,3.65-2.88,5.54.37.25,10.4,5.9,11.16,7.29Z"/><path class="cls-1" d="M103.2,6.51c-3.12,0-6.24,0-9.33.03-1.64.03-3.02-.51-4.37-1.43-2.28-1.51-4.65-2.92-7.01-4.32-1.15-.69-2.43-.84-3.76-.77-3.76.23-5.98,1.05-9.13,2.84-.1.05-.23.13-.36.2-.56.43-1.15,1.15-.89,1.82.26.66.92,2.05,1.56,2.4,2.05,1.2,3.78,3.2,4.04,5.47.03.26.05.54.03.79.03.2,0,.41-.05.64-.1.74-.41,1.48-.28,2.25.13,1,.61,1.02,1.33,1.71,1.33,1.25,2.3,2.25,2.38,3.89.1,2.79-.84,4.14-.95,6.32-.08,1.41-.3,2.37-.94,3.57-.21.44-1.24,1.65-2.88,2.01-.49.08-1.43.28-1.82.28-1.1,0-1.95.18-2.89-.41.66.59,1.08.78,1.57,1.14.15.13-.82-.53-.64-.4.08.05.15.1.23.15.2.13.41.26.66.38.51.26,1.15.59,1.99.97,1.97.77,4.12,1.05,6.09.56,2.1-.51,4.17-1.18,6.29-1.79-1.69-3.07-1.36-4.01,1.25-6.44.56-.51,2.79-1.92,3.32-2.22,3.61-1.87,5.78-2.35,8.05-3.45,2.56-1.23,5.01-2.68,6.06-3.63,3.89-3.48,3.27-4.58,3.38-9.74.03-1.92-1-2.81-2.94-2.81Z"/><path class="cls-1" d="M66.25,5.55c-.65.34-.94.48-1.59.82-.44.22-.89.46-1.21.83-.22.26-.37.58-.56.86-.39.58-.95,1.02-1.51,1.45-1.37,1.04-2.77,2.04-4.2,2.98-.5.33-1.02.67-1.33,1.18-.44.7-.41,1.59-.37,2.42.02.47.05.95.24,1.38.21.47.6.85,1,1.18,1.79,1.48,4.06,2.45,5.4,4.34.7.99.49,1.41.99,2.5.49,1.06.92,2.08,1.52,3.09.62,1.03,1.5,2.05,2.92,2.82.9.49,2.23.33,3.25.24.91-.09,1.99-.36,2.48-1.85.33-1.02.67-2.22.73-3.29.05-.84.11-1.66.18-2.5.07-.86.18-1.76-.12-2.57-.21-.55-.67-.96-1.09-1.37-1.38-1.36-2.49-3.14-2.51-5.08,0-.72.14-1.45.04-2.17-.15-1.18-.92-2.18-1.75-3.04s-1.21-1.48-1.7-2.78l-.8-1.44Z"/><path class="cls-2" d="M492.87,48.28s3.06,1.62,3.81,3.59c0,0,4.91-3.36,6.44-6.19,1.43-2.65-1.16-4.49-3-3.11-.25.19-6.16,5.52-7.24,5.71Z"/><path class="cls-2" d="M740.77,45.22s3.06,1.62,3.81,3.59c0,0,4.91-3.36,6.44-6.19,1.43-2.65-1.16-4.49-3-3.11-.25.19-6.16,5.52-7.24,5.71Z"/></svg>