<?xml version="1.0" encoding="UTF-8"?><svg id="Layer_1" xmlns="http://www.w3.org/2000/svg" viewBox="0 0 123.86 123.86"><defs><style>.cls-1{fill:#fff;stroke:#e4e4e4;stroke-miterlimit:10;}.cls-2{fill:#3a73eb;stroke-width:0px;}</style></defs><circle class="cls-1" cx="61.93" cy="61.93" r="61.43"/><path class="cls-2" d="M36.71,62.92c.57-4.32,3.77-7.5,8.13-7.98,1.59-.18,3.2-.13,4.8-.16,1.6-.02,3.21.05,4.81-.02,1.29-.06,2.41.32,3.33,1.11,1.36,1.17,2.68,2.41,3.93,3.71,2.85,2.96,6.26,4.5,10.41,4.37,2.83-.08,5.22.94,6.99,3.2.4.51.73,1.11.97,1.72.95,2.46,2.46,4.39,4.93,5.47.15.07.28.37.29.57.21,3.84.4,7.68.61,11.53.04.82.12,1.63.18,2.52-1.1,0-2.15.02-3.21-.02-.16,0-.35-.23-.46-.4-1.4-2.23-2.07-4.64-2.07-7.29,0-3.64-1.37-6.71-4.09-9.15-1.98-1.78-4.29-2.8-6.98-2.78-2.96.02-5.47-1.03-7.63-3.01-1.15-1.06-2.3-2.12-3.72-2.83-3.51-1.76-7.08-1.72-10.74-.48-1.47.5-2.98.96-4.51,1.2-2.12.33-4.13-.23-5.98-1.28Z"/><path class="cls-2" d="M71.96,52.34c-.43-.16-.84-.36-1.23-.6.32.16.71.36,1.23.6ZM73.35,37.96c0,.14,0,.3-.02.44.02.02.03.03.03.05.02-.16,0-.33-.02-.49Z"/><path class="cls-2" d="M36.04,65.46c1.39.39,2.68.86,4,1.11,2.51.47,4.95,0,7.29-.96,2.47-1.01,5-1.26,7.6-.67,1.49.34,2.8,1.05,4,2,1.24.98,2.45,2.01,3.76,2.9,1.85,1.25,3.93,1.85,6.17,1.93,5.27.19,9.17,4.3,9.11,9.59-.03,2.58.49,5.01,1.81,7.25.05.08.08.17.14.32-.2.01-.35.03-.5.04-1.28,0-2.57.01-3.85,0-1.33-.01-1.96-.69-1.94-2.04.03-1.88.04-3.77.04-5.65,0-.52-.03-1.05-.12-1.55-.41-2.25-2.12-3.72-4.4-3.77-1.54-.03-3.09-.08-4.63.01-1.89.11-3.46-.54-4.82-1.78-1.69-1.54-3.6-2.66-5.86-3.15-2.72-.58-5.37-.37-7.96.66-2.11.83-4.27,1.38-6.57,1.14-1.52-.15-2.94-.59-4.27-1.33-.15-.08-.32-.34-.29-.48.42-1.89.87-3.78,1.29-5.58Z"/><path class="cls-2" d="M85.29,71.84c-.97-.63-1.6-1.34-2.09-2.17-.3-.5-.56-1.02-.78-1.55-1.8-4.27-5.42-6.69-10.06-6.66-1.82.01-3.6-.13-5.28-.89-1.5-.68-2.8-1.62-3.98-2.75-1.01-.97-2.04-1.92-3.06-2.88-.05-.05-.09-.11-.2-.24,3.36-.16,5.34-1.85,5.98-5.13.55.77,1.03,1.5,1.58,2.17,2.56,3.18,6.17,4.23,10.07,3.02,1.05-.33,2.14-.51,3.21-.75.43-.1.74.05,1.03.41,2.01,2.49,3.03,5.37,3.24,8.51.2,2.91.24,5.84.35,8.93Z"/><path class="cls-2" d="M56.41,81.57c-2.36-1.82-4.92-2.47-7.68-2.44-1.93.02-3.76.52-5.55,1.2-2.38.91-4.83,1.37-7.36.79-1.06-.24-2.07-.73-3.08-1.15-.15-.06-.34-.38-.29-.52.55-1.86,1.13-3.71,1.72-5.6.06.02.16.03.24.07,3.74,1.89,7.55,1.87,11.4.38,1.68-.65,3.38-1.14,5.2-1.1,2.54.05,4.85.8,6.84,2.4.17.13.32.29.52.48-2.41,1.15-2.66,3.08-1.96,5.49Z"/><path class="cls-2" d="M59.25,88.94c-.13.01-.25.03-.36.03-3.13,0-6.25.01-9.38-.01-.31,0-.7-.17-.93-.39-1.71-1.62-3.17-3.45-4.46-5.41-.09-.13-.16-.27-.28-.47,2.94-1.11,5.87-1.5,8.89-.51,3.36,1.09,5.13,3.71,6.51,6.77Z"/><path class="cls-2" d="M28.5,88.96c.04-.18.05-.25.08-.32,1.01-2.17,2.02-4.35,3.06-6.58,2.68,1.65,5.61,2.07,8.81,1.57-.39.67-.72,1.27-1.07,1.85-.64,1.06-1.29,2.12-1.96,3.16-.09.14-.29.31-.44.31-2.8.02-5.6.01-8.48.01Z"/><path class="cls-2" d="M35.48,61.93s.5-3.04,1.95-4.24c0,0-4.24-3.2-7.06-3.68-2.65-.45-3.47,2.25-1.77,3.42.23.16,6.41,3.64,6.89,4.5Z"/><path class="cls-2" d="M91.4,34.11c-1.93,0-3.85,0-5.76.02-1.01.02-1.86-.32-2.7-.88-1.4-.93-2.87-1.8-4.32-2.67-.71-.43-1.5-.52-2.32-.47-2.32.14-3.69.65-5.63,1.75-.06.03-.14.08-.22.13-.35.27-.71.71-.55,1.12.16.41.57,1.26.96,1.48,1.26.74,2.34,1.97,2.49,3.38.02.16.03.33.02.49.02.13,0,.25-.03.39-.06.46-.25.92-.17,1.39.08.62.38.63.82,1.06.82.77,1.42,1.39,1.47,2.4.06,1.72-.52,2.56-.58,3.9-.05.87-.19,1.46-.58,2.2-.13.27-.76,1.02-1.77,1.24-.3.05-.88.18-1.12.18-.68,0-1.2.11-1.78-.25.41.36.67.48.97.7.09.08-.5-.33-.39-.25.05.03.09.06.14.09.13.08.25.16.41.24.32.16.71.36,1.23.6,1.22.47,2.54.65,3.76.35,1.29-.32,2.57-.73,3.88-1.1-1.04-1.89-.84-2.48.77-3.98.35-.32,1.72-1.18,2.05-1.37,2.22-1.15,3.57-1.45,4.97-2.13,1.58-.76,3.09-1.66,3.74-2.24,2.4-2.15,2.02-2.82,2.08-6.01.02-1.18-.62-1.74-1.81-1.74Z"/><path class="cls-2" d="M68.59,33.52l-.98.5c-.27.14-.55.28-.74.51-.14.16-.23.36-.35.53-.24.36-.59.63-.93.89-.84.64-1.71,1.26-2.59,1.84-.31.2-.63.41-.82.73-.27.43-.25.98-.23,1.5.01.29.03.59.15.85.13.29.37.52.61.73,1.1.91,2.5,1.51,3.33,2.68.43.61.3.87.61,1.54.3.66.57,1.29.94,1.91.38.64.92,1.27,1.8,1.74.56.3,1.38.21,2.01.15.56-.05,1.23-.22,1.53-1.14.21-.63.41-1.37.45-2.03.03-.52.07-1.03.11-1.54.05-.53.11-1.09-.08-1.59-.13-.34-.41-.59-.67-.85-.85-.84-1.54-1.94-1.55-3.13,0-.45.08-.89.03-1.34-.09-.73-.57-1.35-1.08-1.88s-.75-.91-1.05-1.72l-.5-.89Z"/></svg>