<?xml version="1.0" encoding="UTF-8"?><svg id="Layer_1" xmlns="http://www.w3.org/2000/svg" viewBox="0 0 196.6 176.74"><defs><style>.cls-1{fill:#3a73eb;stroke-width:0px;}</style></defs><path class="cls-1" d="M27,98.53c1.72-12.97,11.3-22.5,24.39-23.96,4.76-.53,9.6-.4,14.41-.47,4.81-.07,9.63.16,14.44-.07,3.86-.19,7.22.95,10.01,3.34,4.1,3.52,8.04,7.24,11.79,11.12,8.57,8.89,18.79,13.49,31.25,13.13,8.5-.25,15.67,2.82,20.97,9.62,1.2,1.54,2.2,3.33,2.91,5.16,2.86,7.37,7.38,13.17,14.8,16.43.46.2.84,1.11.88,1.72.64,11.53,1.22,23.06,1.83,34.6.13,2.45.35,4.9.54,7.57-3.29,0-6.46.05-9.63-.05-.48-.02-1.06-.69-1.37-1.19-4.21-6.68-6.22-13.94-6.21-21.89.02-10.92-4.12-20.15-12.26-27.47-5.94-5.34-12.87-8.41-20.96-8.35-8.87.06-16.43-3.1-22.92-9.03-3.46-3.17-6.9-6.36-11.16-8.5-10.54-5.28-21.25-5.15-32.22-1.44-4.42,1.49-8.94,2.89-13.53,3.6-6.36.98-12.39-.7-17.95-3.86Z"/><path class="cls-1" d="M132.8,66.77c-1.28-.47-2.51-1.09-3.69-1.8.95.47,2.13,1.09,3.69,1.8ZM136.97,23.62c0,.43,0,.9-.05,1.33.05.05.09.09.09.14.05-.47,0-.99-.05-1.47Z"/><path class="cls-1" d="M24.98,106.17c4.18,1.19,8.03,2.6,12.01,3.34,7.55,1.4,14.84,0,21.87-2.89,7.4-3.04,15.01-3.79,22.8-2,4.46,1.02,8.41,3.16,12,6.01,3.72,2.95,7.36,6.03,11.28,8.69,5.54,3.76,11.79,5.55,18.51,5.8,15.81.58,27.53,12.9,27.36,28.78-.08,7.75,1.48,15.04,5.44,21.76.14.24.23.52.42.97-.61.04-1.06.1-1.5.11-3.85.01-7.7.04-11.55,0-4.01-.03-5.89-2.07-5.83-6.11.08-5.65.13-11.31.13-16.96,0-1.56-.09-3.14-.37-4.67-1.23-6.76-6.36-11.16-13.22-11.3-4.63-.1-9.28-.23-13.89.04-5.68.33-10.38-1.63-14.45-5.34-5.08-4.62-10.82-7.99-17.58-9.44-8.16-1.76-16.12-1.1-23.9,1.97-6.32,2.5-12.81,4.13-19.71,3.43-4.55-.46-8.83-1.78-12.83-3.98-.44-.24-.97-1.02-.88-1.43,1.25-5.68,2.61-11.34,3.88-16.76Z"/><path class="cls-1" d="M172.81,125.33c-2.91-1.88-4.79-4.03-6.28-6.51-.89-1.49-1.67-3.06-2.34-4.66-5.41-12.81-16.28-20.09-30.2-20-5.47.03-10.79-.38-15.86-2.68-4.49-2.04-8.41-4.87-11.95-8.27-3.04-2.91-6.12-5.77-9.18-8.65-.16-.15-.28-.33-.6-.72,10.07-.47,16.03-5.54,17.95-15.4,1.66,2.3,3.1,4.49,4.74,6.52,7.69,9.54,18.52,12.7,30.22,9.05,3.14-.98,6.41-1.53,9.62-2.26,1.29-.29,2.22.14,3.09,1.23,6.02,7.47,9.08,16.12,9.74,25.55.61,8.75.71,17.53,1.06,26.79Z"/><path class="cls-1" d="M86.14,154.53c-7.08-5.46-14.78-7.41-23.04-7.32-5.78.06-11.3,1.56-16.66,3.61-7.16,2.74-14.51,4.11-22.09,2.37-3.18-.73-6.2-2.2-9.25-3.45-.45-.19-1.01-1.14-.88-1.56,1.65-5.58,3.4-11.14,5.17-16.81.19.05.47.08.71.2,11.24,5.67,22.68,5.61,34.23,1.13,5.03-1.95,10.15-3.42,15.6-3.31,7.62.16,14.54,2.39,20.54,7.22.5.41.96.87,1.57,1.44-7.22,3.46-7.97,9.26-5.89,16.47Z"/><path class="cls-1" d="M94.67,176.63c-.4.04-.74.1-1.07.1-9.38,0-18.76.04-28.14-.04-.94,0-2.09-.51-2.78-1.17-5.13-4.86-9.51-10.35-13.39-16.25-.26-.39-.48-.8-.84-1.4,8.84-3.32,17.62-4.49,26.69-1.54,10.08,3.28,15.4,11.13,19.54,20.31Z"/><path class="cls-1" d="M2.37,176.71c.13-.53.16-.76.25-.97,3.03-6.53,6.07-13.05,9.19-19.75,8.04,4.96,16.83,6.22,26.45,4.7-1.16,2.02-2.15,3.82-3.21,5.57-1.93,3.18-3.89,6.35-5.89,9.49-.27.43-.88.92-1.33.92-8.41.05-16.82.04-25.46.04Z"/><path class="cls-1" d="M23.32,95.57s1.51-9.14,5.86-12.72c0,0-12.73-9.59-21.21-11.04-7.94-1.36-10.4,6.77-5.33,10.26.68.47,19.25,10.93,20.67,13.5Z"/><path class="cls-1" d="M191.16,12.06c-5.78,0-11.56,0-17.29.05-3.03.05-5.59-.95-8.1-2.65-4.22-2.79-8.62-5.4-12.98-8-2.13-1.28-4.5-1.56-6.96-1.42-6.96.43-11.08,1.94-16.91,5.26-.19.09-.43.24-.66.38-1.04.81-2.13,2.13-1.66,3.36.47,1.23,1.71,3.79,2.89,4.45,3.79,2.23,7.01,5.92,7.48,10.14.05.47.09.99.05,1.47.05.38,0,.76-.09,1.18-.19,1.37-.76,2.75-.52,4.17.24,1.85,1.14,1.89,2.46,3.17,2.46,2.32,4.26,4.17,4.4,7.2.19,5.16-1.56,7.67-1.75,11.7-.14,2.61-.56,4.39-1.74,6.61-.38.82-2.29,3.05-5.33,3.72-.9.14-2.66.53-3.37.53-2.04,0-3.6.33-5.36-.76,1.23,1.09,2.01,1.44,2.91,2.11.28.24-1.52-.98-1.18-.74.14.09.28.19.43.28.38.24.76.47,1.23.71.95.47,2.13,1.09,3.69,1.8,3.65,1.42,7.63,1.94,11.27,1.04,3.88-.95,7.72-2.18,11.65-3.32-3.13-5.68-2.51-7.44,2.32-11.94,1.04-.95,5.16-3.55,6.16-4.12,6.68-3.46,10.7-4.36,14.92-6.39,4.74-2.27,9.28-4.97,11.23-6.73,7.2-6.44,6.06-8.48,6.25-18.05.05-3.55-1.85-5.21-5.45-5.21Z"/><path class="cls-1" d="M122.71,10.27c-1.21.62-1.73.89-2.95,1.51-.81.42-1.64.85-2.24,1.54-.41.48-.69,1.07-1.04,1.6-.72,1.08-1.76,1.9-2.8,2.69-2.53,1.93-5.13,3.77-7.78,5.53-.92.61-1.88,1.24-2.47,2.18-.82,1.3-.76,2.95-.69,4.49.04.87.09,1.76.44,2.56.39.88,1.1,1.57,1.85,2.18,3.32,2.74,7.52,4.54,10,8.05,1.29,1.83.9,2.61,1.84,4.64.91,1.97,1.7,3.86,2.81,5.72,1.15,1.91,2.78,3.8,5.4,5.22,1.67.9,4.13.62,6.02.44,1.69-.16,3.69-.66,4.6-3.43.62-1.88,1.23-4.11,1.36-6.09.1-1.55.2-3.08.33-4.62.14-1.59.32-3.26-.23-4.76-.38-1.02-1.24-1.78-2.02-2.55-2.56-2.52-4.61-5.82-4.65-9.41-.01-1.34.25-2.69.08-4.01-.28-2.19-1.71-4.04-3.24-5.63-1.53-1.59-2.24-2.74-3.15-5.16l-1.49-2.66Z"/></svg>