<?xml version="1.0" encoding="UTF-8"?><svg id="Layer_1" xmlns="http://www.w3.org/2000/svg" viewBox="0 0 130.95 130.95"><defs><style>.cls-1{fill:#3a73eb;}.cls-1,.cls-2{stroke-width:0px;}.cls-2{fill:#fff;}</style></defs><circle class="cls-1" cx="65.47" cy="65.47" r="65.47"/><path class="cls-2" d="M38.59,66.53c.61-4.61,4.01-7.99,8.66-8.51,1.69-.19,3.41-.14,5.12-.17,1.71-.03,3.42.06,5.13-.02,1.37-.07,2.57.34,3.55,1.19,1.45,1.25,2.86,2.57,4.19,3.95,3.04,3.16,6.67,4.79,11.1,4.66,3.02-.09,5.56,1,7.45,3.42.43.55.78,1.18,1.03,1.83,1.02,2.62,2.62,4.68,5.25,5.83.16.07.3.4.31.61.23,4.09.43,8.19.65,12.28.05.87.12,1.74.19,2.69-1.17,0-2.29.02-3.42-.02-.17,0-.38-.24-.49-.42-1.49-2.37-2.21-4.95-2.2-7.77,0-3.88-1.46-7.16-4.35-9.75-2.11-1.9-4.57-2.98-7.44-2.97-3.15.02-5.83-1.1-8.14-3.21-1.23-1.13-2.45-2.26-3.96-3.02-3.74-1.87-7.55-1.83-11.44-.51-1.57.53-3.17,1.03-4.8,1.28-2.26.35-4.4-.25-6.37-1.37Z"/><path class="cls-2" d="M76.16,55.25c-.45-.17-.89-.39-1.31-.64.34.17.76.39,1.31.64ZM77.64,39.93c0,.15,0,.32-.02.47.02.02.03.03.03.05.02-.17,0-.35-.02-.52Z"/><path class="cls-2" d="M37.88,69.24c1.48.42,2.85.92,4.27,1.18,2.68.5,5.27,0,7.77-1.03,2.63-1.08,5.33-1.35,8.1-.71,1.58.36,2.99,1.12,4.26,2.13,1.32,1.05,2.61,2.14,4,3.09,1.97,1.33,4.19,1.97,6.57,2.06,5.61.21,9.78,4.58,9.72,10.22-.03,2.75.53,5.34,1.93,7.72.05.09.08.19.15.34-.22.02-.38.04-.53.04-1.37,0-2.73.01-4.1,0-1.42-.01-2.09-.74-2.07-2.17.03-2.01.05-4.01.05-6.02,0-.55-.03-1.11-.13-1.66-.44-2.4-2.26-3.96-4.69-4.01-1.64-.03-3.29-.08-4.93.01-2.02.12-3.68-.58-5.13-1.9-1.8-1.64-3.84-2.84-6.24-3.35-2.9-.62-5.72-.39-8.49.7-2.25.89-4.55,1.47-7,1.22-1.62-.16-3.14-.63-4.55-1.41-.16-.09-.34-.36-.31-.51.45-2.02.93-4.03,1.38-5.95Z"/><path class="cls-2" d="M90.37,76.04c-1.03-.67-1.7-1.43-2.23-2.31-.32-.53-.59-1.09-.83-1.66-1.92-4.55-5.78-7.13-10.72-7.1-1.94.01-3.83-.13-5.63-.95-1.6-.72-2.98-1.73-4.24-2.94-1.08-1.03-2.17-2.05-3.26-3.07-.06-.05-.1-.12-.21-.25,3.58-.17,5.69-1.97,6.37-5.47.59.82,1.1,1.59,1.68,2.31,2.73,3.39,6.58,4.51,10.73,3.21,1.11-.35,2.28-.54,3.42-.8.46-.1.79.05,1.1.44,2.14,2.65,3.22,5.72,3.46,9.07.22,3.11.25,6.22.38,9.51Z"/><path class="cls-2" d="M59.59,86.41c-2.51-1.94-5.25-2.63-8.18-2.6-2.05.02-4.01.55-5.92,1.28-2.54.97-5.15,1.46-7.84.84-1.13-.26-2.2-.78-3.28-1.22-.16-.07-.36-.41-.31-.55.58-1.98,1.21-3.95,1.84-5.97.07.02.17.03.25.07,3.99,2.01,8.05,1.99,12.15.4,1.79-.69,3.6-1.22,5.54-1.18,2.71.06,5.16.85,7.29,2.56.18.14.34.31.56.51-2.56,1.23-2.83,3.29-2.09,5.85Z"/><path class="cls-2" d="M62.62,94.26c-.14.01-.26.03-.38.03-3.33,0-6.66.01-9.99-.02-.33,0-.74-.18-.99-.41-1.82-1.72-3.38-3.67-4.75-5.77-.09-.14-.17-.29-.3-.5,3.14-1.18,6.26-1.59,9.48-.55,3.58,1.16,5.47,3.95,6.94,7.21Z"/><path class="cls-2" d="M29.85,94.29c.05-.19.06-.27.09-.34,1.08-2.32,2.16-4.63,3.26-7.01,2.85,1.76,5.98,2.21,9.39,1.67-.41.72-.76,1.36-1.14,1.98-.69,1.13-1.38,2.26-2.09,3.37-.1.15-.31.33-.47.33-2.99.02-5.97.01-9.04.01Z"/><path class="cls-2" d="M37.29,65.47s.53-3.25,2.08-4.52c0,0-4.52-3.41-7.53-3.92-2.82-.48-3.69,2.4-1.89,3.64.24.17,6.84,3.88,7.34,4.79Z"/><path class="cls-2" d="M96.88,35.82c-2.05,0-4.1,0-6.14.02-1.08.02-1.98-.34-2.88-.94-1.5-.99-3.06-1.92-4.61-2.84-.76-.45-1.6-.56-2.47-.5-2.47.15-3.94.69-6,1.87-.07.03-.15.08-.24.13-.37.29-.76.76-.59,1.19.17.44.61,1.35,1.03,1.58,1.35.79,2.49,2.1,2.66,3.6.02.17.03.35.02.52.02.13,0,.27-.03.42-.07.49-.27.98-.18,1.48.08.66.4.67.87,1.13.87.82,1.51,1.48,1.56,2.56.07,1.83-.55,2.72-.62,4.15-.05.93-.2,1.56-.62,2.35-.14.29-.81,1.08-1.89,1.32-.32.05-.94.19-1.19.19-.72,0-1.28.12-1.9-.27.44.39.71.51,1.03.75.1.08-.54-.35-.42-.26.05.03.1.07.15.1.13.08.27.17.44.25.34.17.76.39,1.31.64,1.3.5,2.71.69,4,.37,1.38-.34,2.74-.77,4.14-1.18-1.11-2.02-.89-2.64.82-4.24.37-.34,1.83-1.26,2.19-1.46,2.37-1.23,3.8-1.55,5.3-2.27,1.68-.81,3.3-1.77,3.99-2.39,2.56-2.29,2.15-3.01,2.22-6.41.02-1.26-.66-1.85-1.93-1.85Z"/><path class="cls-2" d="M72.58,35.19l-1.05.54c-.29.15-.58.3-.79.55-.15.17-.24.38-.37.57-.26.38-.63.67-.99.95-.9.69-1.82,1.34-2.76,1.96-.33.22-.67.44-.88.77-.29.46-.27,1.05-.24,1.59.02.31.03.63.16.91.14.31.39.56.66.77,1.18.97,2.67,1.61,3.55,2.86.46.65.32.93.65,1.65.32.7.6,1.37,1,2.03.41.68.99,1.35,1.92,1.85.59.32,1.47.22,2.14.15.6-.06,1.31-.24,1.63-1.22.22-.67.44-1.46.48-2.16.03-.55.07-1.09.12-1.64.05-.57.12-1.16-.08-1.69-.13-.36-.44-.63-.72-.9-.91-.89-1.64-2.07-1.65-3.34,0-.48.09-.95.03-1.43-.1-.78-.61-1.44-1.15-2s-.8-.97-1.12-1.83l-.53-.95Z"/></svg>