<?xml version="1.0" encoding="utf-8"?>
<!-- Generator: Adobe Illustrator 28.1.0, SVG Export Plug-In . SVG Version: 6.00 Build 0)  -->
<svg version="1.1" id="Layer_1" xmlns="http://www.w3.org/2000/svg" xmlns:xlink="http://www.w3.org/1999/xlink" x="0px" y="0px"
	 viewBox="0 0 200 200" style="enable-background:new 0 0 200 200;" xml:space="preserve">
<style type="text/css">
	.st0{fill:#121212;}
	.st1{fill:#3A73EB;}
</style>
<g>
	<path class="st0" d="M134.1,106.5c-0.2,0-0.3,0-0.4-0.1c-0.1-0.1-0.1-0.2-0.1-0.4V93.5c0-0.2,0.1-0.3,0.1-0.4
		c0.1-0.1,0.2-0.1,0.4-0.1h3.1c1,0,1.9,0.2,2.7,0.5c0.8,0.3,1.5,0.8,2.1,1.4c0.6,0.6,1.1,1.3,1.4,2.1c0.3,0.8,0.5,1.7,0.5,2.7
		c0,1-0.2,1.9-0.5,2.7c-0.3,0.8-0.8,1.5-1.4,2.1c-0.6,0.6-1.3,1.1-2.1,1.4c-0.8,0.3-1.7,0.5-2.7,0.5H134.1z M134.6,105.6h2.6
		c1.1,0,2.1-0.3,3-0.8c0.9-0.5,1.5-1.2,2-2.1c0.5-0.9,0.7-1.9,0.7-3c0-1.1-0.2-2.1-0.7-3c-0.5-0.9-1.2-1.6-2-2.1
		c-0.9-0.5-1.8-0.8-3-0.8h-2.6V105.6z"/>
	<path class="st0" d="M151.3,106.6c-0.9,0-1.7-0.2-2.4-0.6s-1.3-1-1.7-1.7c-0.4-0.7-0.6-1.6-0.6-2.5c0-0.9,0.2-1.8,0.6-2.5
		s0.9-1.3,1.6-1.7s1.4-0.6,2.3-0.6c0.9,0,1.6,0.2,2.3,0.6s1.2,0.9,1.5,1.6c0.4,0.7,0.6,1.5,0.6,2.4c0,0.2,0,0.3-0.1,0.4
		s-0.2,0.1-0.4,0.1h-7.6v-0.9h7.9l-0.8,0.6c0-0.7-0.1-1.4-0.4-2c-0.3-0.6-0.7-1-1.2-1.4c-0.5-0.3-1.1-0.5-1.8-0.5
		c-0.7,0-1.2,0.2-1.8,0.5c-0.5,0.3-0.9,0.8-1.2,1.4c-0.3,0.6-0.4,1.2-0.4,2c0,0.7,0.2,1.4,0.5,2c0.3,0.6,0.7,1,1.3,1.4
		c0.6,0.3,1.2,0.5,1.9,0.5c0.5,0,0.9-0.1,1.4-0.2c0.5-0.2,0.8-0.4,1.1-0.6c0.1-0.1,0.2-0.1,0.3-0.1c0.1,0,0.2,0,0.3,0.1
		c0.1,0.1,0.2,0.2,0.2,0.3c0,0.1-0.1,0.2-0.2,0.3c-0.4,0.3-0.8,0.6-1.4,0.8C152.4,106.5,151.9,106.6,151.3,106.6z"/>
	<path class="st0" d="M161.5,106.6c-0.6,0-1.2-0.1-1.9-0.3c-0.7-0.2-1.2-0.6-1.6-1.1c-0.1-0.1-0.1-0.2-0.1-0.4
		c0-0.1,0.1-0.2,0.2-0.3c0.1-0.1,0.2-0.1,0.4-0.1c0.1,0,0.2,0.1,0.3,0.2c0.3,0.4,0.7,0.7,1.2,0.8c0.5,0.2,1,0.2,1.6,0.2
		c1,0,1.7-0.2,2.1-0.5s0.6-0.7,0.6-1.2c0-0.4-0.2-0.8-0.6-1.1c-0.4-0.3-1.1-0.5-2-0.6c-1.2-0.2-2-0.5-2.6-0.9
		c-0.6-0.5-0.8-1-0.8-1.6c0-0.6,0.1-1.1,0.4-1.5c0.3-0.4,0.7-0.7,1.2-0.9s1.1-0.3,1.7-0.3c0.8,0,1.4,0.1,2,0.4s1,0.7,1.3,1.1
		c0.1,0.1,0.1,0.2,0.1,0.4c0,0.1-0.1,0.2-0.3,0.3c-0.1,0.1-0.2,0.1-0.4,0.1c-0.1,0-0.2-0.1-0.3-0.2c-0.3-0.4-0.6-0.6-1-0.8
		c-0.4-0.2-0.9-0.3-1.4-0.3c-0.7,0-1.3,0.2-1.7,0.5c-0.4,0.3-0.6,0.7-0.6,1.1c0,0.3,0.1,0.6,0.3,0.8c0.2,0.2,0.4,0.4,0.8,0.6
		c0.4,0.2,0.9,0.3,1.5,0.4c0.9,0.1,1.5,0.3,2,0.6c0.5,0.3,0.9,0.6,1.1,1c0.2,0.4,0.3,0.8,0.3,1.2c0,0.5-0.2,1-0.5,1.4
		c-0.3,0.4-0.8,0.7-1.4,0.9C162.8,106.5,162.2,106.6,161.5,106.6z"/>
	<path class="st0" d="M169,95.1c-0.2,0-0.4-0.1-0.6-0.2c-0.2-0.2-0.2-0.3-0.2-0.6c0-0.3,0.1-0.5,0.3-0.6c0.2-0.1,0.4-0.2,0.6-0.2
		c0.2,0,0.4,0.1,0.5,0.2c0.2,0.1,0.3,0.3,0.3,0.6c0,0.2-0.1,0.4-0.2,0.6C169.4,95,169.3,95.1,169,95.1z M169,106.5
		c-0.2,0-0.3,0-0.4-0.1c-0.1-0.1-0.1-0.2-0.1-0.4v-8.4c0-0.2,0.1-0.3,0.1-0.4c0.1-0.1,0.2-0.1,0.4-0.1c0.2,0,0.3,0,0.4,0.1
		c0.1,0.1,0.1,0.2,0.1,0.4v8.4c0,0.2,0,0.3-0.1,0.4C169.3,106.5,169.2,106.5,169,106.5z"/>
	<path class="st0" d="M178,106.6c-0.9,0-1.8-0.2-2.5-0.6s-1.3-1-1.7-1.7c-0.4-0.7-0.6-1.6-0.6-2.5c0-0.9,0.2-1.8,0.6-2.5
		c0.4-0.7,1-1.3,1.7-1.7c0.7-0.4,1.5-0.6,2.5-0.6c0.9,0,1.8,0.2,2.5,0.6c0.7,0.4,1.3,1,1.7,1.7c0.4,0.7,0.6,1.6,0.6,2.5l-0.6,0.7
		c0,0.8-0.2,1.5-0.5,2.1c-0.4,0.6-0.9,1.1-1.5,1.5C179.5,106.4,178.8,106.6,178,106.6z M178,110.1c-1,0-1.8-0.2-2.4-0.5
		c-0.7-0.4-1.2-0.8-1.7-1.4c-0.1-0.1-0.1-0.2-0.1-0.4s0.1-0.2,0.2-0.3c0.1-0.1,0.3-0.1,0.4-0.1c0.2,0,0.3,0.1,0.4,0.2
		c0.4,0.4,0.8,0.8,1.4,1.1c0.6,0.3,1.2,0.4,1.9,0.4c0.7,0,1.3-0.2,1.9-0.5c0.6-0.3,1-0.8,1.3-1.4c0.3-0.6,0.5-1.3,0.5-2v-2.7
		l0.5-0.6h0.6v3.4c0,0.9-0.2,1.8-0.6,2.5c-0.4,0.7-1,1.3-1.7,1.8C179.8,109.9,178.9,110.1,178,110.1z M178,105.6
		c0.7,0,1.4-0.2,2-0.5c0.6-0.3,1-0.8,1.3-1.4c0.3-0.6,0.5-1.2,0.5-2c0-0.8-0.2-1.4-0.5-2c-0.3-0.6-0.8-1-1.3-1.4
		c-0.6-0.3-1.2-0.5-2-0.5c-0.7,0-1.4,0.2-2,0.5c-0.6,0.3-1,0.8-1.3,1.4c-0.3,0.6-0.5,1.3-0.5,2c0,0.7,0.2,1.4,0.5,2
		c0.3,0.6,0.8,1,1.3,1.4C176.6,105.5,177.2,105.6,178,105.6z"/>
	<path class="st0" d="M186.5,106.5c-0.2,0-0.3,0-0.4-0.1c-0.1-0.1-0.1-0.2-0.1-0.4v-8.4c0-0.2,0-0.3,0.1-0.4
		c0.1-0.1,0.2-0.1,0.4-0.1c0.2,0,0.3,0,0.4,0.1c0.1,0.1,0.1,0.2,0.1,0.4v8.4c0,0.2,0,0.3-0.1,0.4
		C186.8,106.5,186.7,106.5,186.5,106.5z M194.2,106.5c-0.2,0-0.3,0-0.4-0.1c-0.1-0.1-0.1-0.2-0.1-0.4v-4.6c0-0.8-0.1-1.4-0.4-1.9
		c-0.3-0.5-0.7-0.9-1.2-1.1c-0.5-0.2-1.1-0.4-1.7-0.4c-0.6,0-1.2,0.1-1.7,0.4c-0.5,0.2-0.9,0.6-1.2,1c-0.3,0.4-0.4,0.9-0.4,1.4h-0.9
		c0-0.7,0.3-1.4,0.6-1.9c0.4-0.6,0.9-1,1.5-1.3c0.6-0.3,1.3-0.5,2-0.5c0.8,0,1.6,0.2,2.2,0.5c0.7,0.3,1.2,0.8,1.6,1.5
		c0.4,0.7,0.6,1.5,0.6,2.4v4.6c0,0.2,0,0.3-0.1,0.4C194.4,106.5,194.3,106.5,194.2,106.5z"/>
</g>
<g>
	<path class="st0" d="M42.6,107.5c-0.1,0-0.2,0-0.3-0.1c-0.1-0.1-0.2-0.2-0.2-0.3l-3.6-12.4c-0.1-0.2,0-0.4,0.1-0.5
		c0.1-0.2,0.2-0.2,0.4-0.2c0.1,0,0.2,0,0.3,0.1c0.1,0.1,0.2,0.2,0.2,0.3l3.4,11.6h-0.4l3.2-11.2c0-0.1,0.1-0.2,0.2-0.2
		c0.1-0.1,0.2-0.1,0.3-0.1c0.1,0,0.2,0,0.3,0.1c0.1,0.1,0.2,0.1,0.2,0.3l3.2,11.2h-0.4l3.4-11.7c0.1-0.2,0.2-0.3,0.5-0.3
		c0.2,0,0.3,0.1,0.4,0.2c0.1,0.2,0.1,0.3,0,0.6L50.1,107c0,0.2-0.1,0.3-0.2,0.3c-0.1,0.1-0.2,0.1-0.3,0.1c-0.1,0-0.3,0-0.3-0.1
		c-0.1-0.1-0.2-0.2-0.2-0.3l-3.2-11.2h0.4L43.1,107c0,0.1-0.1,0.2-0.2,0.3S42.7,107.5,42.6,107.5z"/>
	<path class="st0" d="M58.3,107.6c-0.9,0-1.8-0.2-2.5-0.6s-1.3-1-1.7-1.7c-0.4-0.7-0.6-1.6-0.6-2.5c0-0.9,0.2-1.8,0.6-2.5
		c0.4-0.7,1-1.3,1.7-1.7s1.6-0.6,2.5-0.6c0.9,0,1.8,0.2,2.5,0.6c0.7,0.4,1.3,1,1.7,1.7c0.4,0.7,0.6,1.6,0.6,2.5l-0.4,0.7
		c0,0.8-0.2,1.5-0.6,2.1c-0.4,0.6-0.9,1.1-1.6,1.5C59.9,107.4,59.1,107.6,58.3,107.6z M58.3,106.6c0.7,0,1.4-0.2,2-0.5
		c0.6-0.3,1-0.8,1.4-1.4c0.3-0.6,0.5-1.2,0.5-2c0-0.7-0.2-1.4-0.5-2c-0.3-0.6-0.8-1.1-1.4-1.4c-0.6-0.3-1.2-0.5-2-0.5
		c-0.7,0-1.4,0.2-2,0.5c-0.6,0.3-1,0.8-1.4,1.4c-0.3,0.6-0.5,1.3-0.5,2c0,0.7,0.2,1.4,0.5,2c0.3,0.6,0.8,1.1,1.4,1.4
		C56.9,106.5,57.5,106.6,58.3,106.6z M62.6,107.5c-0.2,0-0.3,0-0.4-0.1c-0.1-0.1-0.1-0.2-0.1-0.4v-3.2l0.3-1h0.7v4.2
		c0,0.2,0,0.3-0.1,0.4C62.9,107.4,62.8,107.5,62.6,107.5z"/>
	<path class="st0" d="M68.5,107.5c-0.2,0-0.4-0.1-0.5-0.4l-4-8.5c0-0.1,0-0.3,0-0.4c0-0.1,0.1-0.2,0.3-0.3s0.3-0.1,0.4,0
		c0.1,0,0.2,0.1,0.3,0.3l3.9,8.4h-0.6l3.8-8.4c0.1-0.1,0.2-0.2,0.3-0.3c0.1,0,0.3,0,0.4,0c0.1,0.1,0.2,0.1,0.3,0.3
		c0.1,0.1,0,0.2,0,0.4l-3.9,8.5C68.9,107.4,68.7,107.5,68.5,107.5z"/>
	<path class="st0" d="M78.3,107.3c-0.2,0.1-0.3,0.1-0.4,0.1c-0.1,0-0.2-0.1-0.3-0.3l-3.8-8.4c-0.1-0.2-0.1-0.3-0.1-0.4
		c0-0.1,0.1-0.2,0.3-0.3c0.2-0.1,0.3-0.1,0.4-0.1c0.1,0,0.2,0.1,0.3,0.3l3.8,8.4c0.1,0.2,0.1,0.3,0.1,0.4
		C78.6,107.1,78.5,107.2,78.3,107.3z M76.5,111.6c-0.1,0-0.2,0-0.2-0.1c-0.3-0.1-0.4-0.3-0.3-0.6l5.9-12.7c0.1-0.3,0.4-0.4,0.6-0.3
		c0.3,0.1,0.4,0.3,0.3,0.6l-5.9,12.7C76.8,111.5,76.7,111.6,76.5,111.6z"/>
	<path class="st0" d="M90.4,107.5c-0.2,0-0.3,0-0.4-0.1c-0.1-0.1-0.1-0.2-0.1-0.4V94.4c0-0.2,0-0.3,0.1-0.4c0.1-0.1,0.2-0.1,0.4-0.1
		h3.1c1,0,1.9,0.2,2.7,0.5c0.8,0.3,1.6,0.8,2.2,1.4c0.6,0.6,1.1,1.3,1.4,2.2c0.3,0.8,0.5,1.7,0.5,2.7c0,1-0.2,1.9-0.5,2.7
		c-0.3,0.8-0.8,1.5-1.4,2.2c-0.6,0.6-1.3,1.1-2.2,1.4c-0.8,0.3-1.7,0.5-2.7,0.5H90.4z M90.9,106.6h2.6c1.1,0,2.1-0.3,3-0.8
		c0.9-0.5,1.5-1.2,2-2.1c0.5-0.9,0.7-1.9,0.7-3c0-1.1-0.2-2.1-0.7-3c-0.5-0.9-1.2-1.6-2-2.1c-0.9-0.5-1.9-0.8-3-0.8h-2.6V106.6z"/>
	<path class="st0" d="M107.3,107.6c-0.9,0-1.8-0.2-2.5-0.6c-0.7-0.4-1.3-1-1.7-1.7c-0.4-0.7-0.6-1.6-0.6-2.5c0-0.9,0.2-1.8,0.6-2.5
		c0.4-0.7,1-1.3,1.7-1.7c0.7-0.4,1.6-0.6,2.5-0.6c0.9,0,1.8,0.2,2.5,0.6s1.3,1,1.7,1.7c0.4,0.7,0.6,1.6,0.6,2.5
		c0,0.9-0.2,1.7-0.6,2.5c-0.4,0.7-1,1.3-1.7,1.7S108.2,107.6,107.3,107.6z M107.3,106.6c0.7,0,1.4-0.2,2-0.5c0.6-0.3,1-0.8,1.4-1.4
		c0.3-0.6,0.5-1.3,0.5-2c0-0.7-0.2-1.4-0.5-2c-0.3-0.6-0.8-1.1-1.4-1.4c-0.6-0.3-1.2-0.5-2-0.5c-0.7,0-1.4,0.2-2,0.5
		c-0.6,0.3-1,0.8-1.4,1.4c-0.3,0.6-0.5,1.3-0.5,2c0,0.7,0.2,1.4,0.5,2c0.3,0.6,0.8,1.1,1.4,1.4C105.9,106.5,106.6,106.6,107.3,106.6
		z"/>
	<path class="st0" d="M119.1,107.6c-1,0-1.8-0.2-2.5-0.6c-0.7-0.4-1.3-1-1.7-1.7s-0.6-1.6-0.6-2.5c0-1,0.2-1.8,0.6-2.5
		c0.4-0.7,1-1.3,1.8-1.7c0.7-0.4,1.6-0.6,2.5-0.6c1,0,1.8,0.2,2.5,0.6c0.7,0.4,1.3,1,1.7,1.7s0.6,1.6,0.6,2.5l-0.6,0.7
		c0,0.8-0.2,1.5-0.5,2.2c-0.4,0.6-0.9,1.1-1.5,1.5C120.7,107.4,119.9,107.6,119.1,107.6z M119.2,111.1c-1,0-1.8-0.2-2.5-0.5
		c-0.7-0.4-1.2-0.8-1.7-1.4c-0.1-0.1-0.1-0.2-0.1-0.4c0-0.1,0.1-0.2,0.2-0.3c0.1-0.1,0.3-0.1,0.4-0.1c0.2,0,0.3,0.1,0.4,0.2
		c0.4,0.4,0.8,0.8,1.4,1.1c0.6,0.3,1.2,0.4,2,0.4c0.7,0,1.4-0.2,1.9-0.5c0.6-0.3,1-0.8,1.3-1.4c0.3-0.6,0.5-1.3,0.5-2v-2.8l0.5-0.6
		h0.6v3.4c0,0.9-0.2,1.8-0.6,2.5c-0.4,0.8-1,1.3-1.7,1.8C120.9,110.9,120.1,111.1,119.2,111.1z M119.1,106.6c0.7,0,1.4-0.2,2-0.5
		c0.6-0.3,1-0.8,1.4-1.4c0.3-0.6,0.5-1.3,0.5-2c0-0.8-0.2-1.4-0.5-2c-0.3-0.6-0.8-1-1.4-1.4c-0.6-0.3-1.2-0.5-2-0.5
		c-0.7,0-1.4,0.2-2,0.5c-0.6,0.3-1,0.8-1.4,1.4c-0.3,0.6-0.5,1.3-0.5,2c0,0.8,0.2,1.4,0.5,2c0.3,0.6,0.8,1,1.4,1.4
		C117.7,106.5,118.4,106.6,119.1,106.6z"/>
</g>
<g>
	<g>
		<g>
			<path class="st1" d="M9.2,100.1c0.2-1.7,1.5-2.9,3.1-3.1c0.6-0.1,1.2-0.1,1.9-0.1c0.6,0,1.2,0,1.9,0c0.5,0,0.9,0.1,1.3,0.4
				c0.5,0.5,1,0.9,1.5,1.4c1.1,1.1,2.4,1.7,4,1.7c1.1,0,2,0.4,2.7,1.2c0.2,0.2,0.3,0.4,0.4,0.7c0.4,0.9,0.9,1.7,1.9,2.1
				c0.1,0,0.1,0.1,0.1,0.2c0.1,1.5,0.2,3,0.2,4.4c0,0.3,0,0.6,0.1,1c-0.4,0-0.8,0-1.2,0c-0.1,0-0.1-0.1-0.2-0.2
				c-0.5-0.9-0.8-1.8-0.8-2.8c0-1.4-0.5-2.6-1.6-3.5c-0.8-0.7-1.7-1.1-2.7-1.1c-1.1,0-2.1-0.4-2.9-1.2c-0.4-0.4-0.9-0.8-1.4-1.1
				c-1.4-0.7-2.7-0.7-4.1-0.2c-0.6,0.2-1.1,0.4-1.7,0.5C10.7,100.8,9.9,100.5,9.2,100.1z"/>
			<path class="st1" d="M22.8,96.1c-0.2-0.1-0.3-0.1-0.5-0.2C22.4,95.9,22.6,96,22.8,96.1z M23.3,90.5c0,0.1,0,0.1,0,0.2
				c0,0,0,0,0,0C23.3,90.6,23.3,90.6,23.3,90.5z"/>
			<path class="st1" d="M8.9,101.1c0.5,0.2,1,0.3,1.5,0.4c1,0.2,1.9,0,2.8-0.4c1-0.4,1.9-0.5,2.9-0.3c0.6,0.1,1.1,0.4,1.5,0.8
				c0.5,0.4,0.9,0.8,1.4,1.1c0.7,0.5,1.5,0.7,2.4,0.7c2,0.1,3.5,1.7,3.5,3.7c0,1,0.2,1.9,0.7,2.8c0,0,0,0.1,0.1,0.1
				c-0.1,0-0.1,0-0.2,0c-0.5,0-1,0-1.5,0c-0.5,0-0.8-0.3-0.7-0.8c0-0.7,0-1.5,0-2.2c0-0.2,0-0.4,0-0.6c-0.2-0.9-0.8-1.4-1.7-1.5
				c-0.6,0-1.2,0-1.8,0c-0.7,0-1.3-0.2-1.9-0.7c-0.7-0.6-1.4-1-2.3-1.2c-1-0.2-2.1-0.1-3.1,0.3c-0.8,0.3-1.6,0.5-2.5,0.4
				c-0.6-0.1-1.1-0.2-1.6-0.5c-0.1,0-0.1-0.1-0.1-0.2C8.6,102.5,8.8,101.8,8.9,101.1z"/>
			<path class="st1" d="M27.9,103.6c-0.4-0.2-0.6-0.5-0.8-0.8c-0.1-0.2-0.2-0.4-0.3-0.6c-0.7-1.6-2.1-2.6-3.9-2.6
				c-0.7,0-1.4,0-2-0.3c-0.6-0.3-1.1-0.6-1.5-1.1c-0.4-0.4-0.8-0.7-1.2-1.1c0,0,0,0-0.1-0.1c1.3-0.1,2.1-0.7,2.3-2
				c0.2,0.3,0.4,0.6,0.6,0.8c1,1.2,2.4,1.6,3.9,1.2c0.4-0.1,0.8-0.2,1.2-0.3c0.2,0,0.3,0,0.4,0.2c0.8,1,1.2,2.1,1.3,3.3
				C27.9,101.3,27.9,102.4,27.9,103.6z"/>
			<path class="st1" d="M16.8,107.3c-0.9-0.7-1.9-1-3-0.9c-0.7,0-1.5,0.2-2.1,0.5c-0.9,0.4-1.9,0.5-2.8,0.3
				c-0.4-0.1-0.8-0.3-1.2-0.4c-0.1,0-0.1-0.1-0.1-0.2c0.2-0.7,0.4-1.4,0.7-2.2c0,0,0.1,0,0.1,0c1.4,0.7,2.9,0.7,4.4,0.1
				c0.6-0.3,1.3-0.4,2-0.4c1,0,1.9,0.3,2.6,0.9c0.1,0.1,0.1,0.1,0.2,0.2C16.6,105.7,16.5,106.4,16.8,107.3z"/>
			<path class="st1" d="M17.9,110.2c-0.1,0-0.1,0-0.1,0c-1.2,0-2.4,0-3.6,0c-0.1,0-0.3-0.1-0.4-0.1c-0.7-0.6-1.2-1.3-1.7-2.1
				c0-0.1-0.1-0.1-0.1-0.2c1.1-0.4,2.3-0.6,3.4-0.2C16.7,108,17.4,109,17.9,110.2z"/>
			<path class="st1" d="M6,110.2c0-0.1,0-0.1,0-0.1c0.4-0.8,0.8-1.7,1.2-2.5c1,0.6,2.2,0.8,3.4,0.6c-0.1,0.3-0.3,0.5-0.4,0.7
				c-0.2,0.4-0.5,0.8-0.8,1.2c0,0.1-0.1,0.1-0.2,0.1C8.2,110.2,7.1,110.2,6,110.2z"/>
		</g>
		<path class="st1" d="M8.7,99.8c0,0,0.2-1.2,0.8-1.6c0,0-1.6-1.2-2.7-1.4c-1-0.2-1.3,0.9-0.7,1.3C6.1,98.1,8.5,99.4,8.7,99.8z"/>
		<path class="st1" d="M30.3,89c-0.7,0-1.5,0-2.2,0c-0.4,0-0.7-0.1-1-0.3c-0.5-0.4-1.1-0.7-1.7-1c-0.3-0.2-0.6-0.2-0.9-0.2
			c-0.9,0.1-1.4,0.2-2.2,0.7c0,0-0.1,0-0.1,0c-0.1,0.1-0.3,0.3-0.2,0.4c0.1,0.2,0.2,0.5,0.4,0.6c0.5,0.3,0.9,0.8,1,1.3
			c0,0.1,0,0.1,0,0.2c0,0,0,0.1,0,0.2c0,0.2-0.1,0.4-0.1,0.5c0,0.2,0.1,0.2,0.3,0.4c0.3,0.3,0.5,0.5,0.6,0.9c0,0.7-0.2,1-0.2,1.5
			c0,0.3-0.1,0.6-0.2,0.9c0,0.1-0.3,0.4-0.7,0.5c-0.1,0-0.3,0.1-0.4,0.1c-0.3,0-0.5,0-0.7-0.1c0.2,0.1,0.3,0.2,0.4,0.3
			c0,0-0.2-0.1-0.2-0.1c0,0,0,0,0.1,0c0,0,0.1,0.1,0.2,0.1c0.1,0.1,0.3,0.1,0.5,0.2c0.5,0.2,1,0.2,1.4,0.1c0.5-0.1,1-0.3,1.5-0.4
			c-0.4-0.7-0.3-1,0.3-1.5c0.1-0.1,0.7-0.5,0.8-0.5c0.9-0.4,1.4-0.6,1.9-0.8c0.6-0.3,1.2-0.6,1.4-0.9c0.9-0.8,0.8-1.1,0.8-2.3
			C31,89.2,30.8,89,30.3,89z"/>
	</g>
	<path class="st1" d="M21.5,88.8c-0.2,0.1-0.2,0.1-0.4,0.2c-0.1,0.1-0.2,0.1-0.3,0.2c-0.1,0.1-0.1,0.1-0.1,0.2
		c-0.1,0.1-0.2,0.2-0.4,0.3c-0.3,0.2-0.7,0.5-1,0.7c-0.1,0.1-0.2,0.2-0.3,0.3c-0.1,0.2-0.1,0.4-0.1,0.6c0,0.1,0,0.2,0.1,0.3
		c0,0.1,0.1,0.2,0.2,0.3c0.4,0.4,1,0.6,1.3,1c0.2,0.2,0.1,0.3,0.2,0.6c0.1,0.3,0.2,0.5,0.4,0.7c0.1,0.2,0.4,0.5,0.7,0.7
		c0.2,0.1,0.5,0.1,0.8,0.1c0.2,0,0.5-0.1,0.6-0.4c0.1-0.2,0.2-0.5,0.2-0.8c0-0.2,0-0.4,0-0.6c0-0.2,0-0.4,0-0.6
		c0-0.1-0.2-0.2-0.3-0.3c-0.3-0.3-0.6-0.7-0.6-1.2c0-0.2,0-0.3,0-0.5c0-0.3-0.2-0.5-0.4-0.7s-0.3-0.4-0.4-0.7L21.5,88.8z"/>
</g>
<g>
	<g>
		<g>
			<path class="st0" d="M122.1,99c0,0,0.7,0.4,0.9,0.9c0,0,1.2-0.8,1.5-1.5c0.3-0.6-0.3-1.1-0.7-0.7C123.8,97.7,122.4,98.9,122.1,99
				z"/>
		</g>
	</g>
</g>
<g>
	<g>
		<g>
			<path class="st0" d="M180.8,97.9c0,0,0.7,0.4,0.9,0.9c0,0,1.2-0.8,1.5-1.5c0.3-0.6-0.3-1.1-0.7-0.7
				C182.5,96.6,181.1,97.9,180.8,97.9z"/>
		</g>
	</g>
</g>
</svg>
