<?xml version="1.0" encoding="UTF-8"?><svg id="Layer_1" xmlns="http://www.w3.org/2000/svg" viewBox="0 0 44.32 39.84"><defs><style>.cls-1{fill:#2563eb;stroke-width:0px;}</style></defs><path class="cls-1" d="M6.09,22.21c.39-2.92,2.55-5.07,5.5-5.4,1.07-.12,2.16-.09,3.25-.11,1.08-.02,2.17.04,3.25-.02.87-.04,1.63.21,2.26.75.92.79,1.81,1.63,2.66,2.51,1.93,2,4.24,3.04,7.04,2.96,1.92-.06,3.53.63,4.73,2.17.27.35.5.75.65,1.16.65,1.66,1.66,2.97,3.34,3.7.1.05.19.25.2.39.14,2.6.27,5.2.41,7.8.03.55.08,1.1.12,1.71-.74,0-1.46.01-2.17-.01-.11,0-.24-.15-.31-.27-.95-1.51-1.4-3.14-1.4-4.93,0-2.46-.93-4.54-2.76-6.19-1.34-1.2-2.9-1.89-4.72-1.88-2,.01-3.7-.7-5.17-2.04-.78-.71-1.55-1.43-2.51-1.91-2.37-1.19-4.79-1.16-7.26-.32-1,.34-2.02.65-3.05.81-1.43.22-2.79-.16-4.05-.87Z"/><path class="cls-1" d="M29.94,15.05c-.29-.11-.57-.25-.83-.41.21.11.48.25.83.41ZM30.87,5.32c0,.1,0,.2-.01.3.01.01.02.02.02.03.01-.11,0-.22-.01-.33Z"/><path class="cls-1" d="M5.63,23.93c.94.27,1.81.59,2.71.75,1.7.32,3.35,0,4.93-.65,1.67-.69,3.38-.85,5.14-.45,1,.23,1.9.71,2.7,1.35.84.66,1.66,1.36,2.54,1.96,1.25.85,2.66,1.25,4.17,1.31,3.56.13,6.21,2.91,6.17,6.49-.02,1.75.33,3.39,1.23,4.9.03.06.05.12.1.22-.14.01-.24.02-.34.02-.87,0-1.74,0-2.6,0-.9,0-1.33-.47-1.31-1.38.02-1.27.03-2.55.03-3.82,0-.35-.02-.71-.08-1.05-.28-1.52-1.43-2.52-2.98-2.55-1.04-.02-2.09-.05-3.13,0-1.28.07-2.34-.37-3.26-1.2-1.15-1.04-2.44-1.8-3.96-2.13-1.84-.4-3.63-.25-5.39.45-1.43.56-2.89.93-4.44.77-1.03-.1-1.99-.4-2.89-.9-.1-.05-.22-.23-.2-.32.28-1.28.59-2.56.87-3.78Z"/><path class="cls-1" d="M38.95,28.25c-.66-.42-1.08-.91-1.42-1.47-.2-.34-.38-.69-.53-1.05-1.22-2.89-3.67-4.53-6.81-4.51-1.23,0-2.43-.08-3.57-.6-1.01-.46-1.89-1.1-2.69-1.86-.68-.66-1.38-1.3-2.07-1.95-.04-.03-.06-.07-.13-.16,2.27-.11,3.61-1.25,4.05-3.47.37.52.7,1.01,1.07,1.47,1.73,2.15,4.17,2.86,6.81,2.04.71-.22,1.44-.35,2.17-.51.29-.07.5.03.7.28,1.36,1.68,2.05,3.63,2.19,5.76.14,1.97.16,3.95.24,6.04Z"/><path class="cls-1" d="M19.42,34.83c-1.6-1.23-3.33-1.67-5.19-1.65-1.3.01-2.55.35-3.76.81-1.61.62-3.27.93-4.98.53-.72-.17-1.4-.49-2.08-.78-.1-.04-.23-.26-.2-.35.37-1.26.77-2.51,1.17-3.79.04.01.11.02.16.04,2.53,1.28,5.11,1.27,7.72.25,1.13-.44,2.29-.77,3.52-.75,1.72.04,3.28.54,4.63,1.63.11.09.22.2.35.33-1.63.78-1.8,2.09-1.33,3.71Z"/><path class="cls-1" d="M21.34,39.81c-.09,0-.17.02-.24.02-2.11,0-4.23,0-6.34,0-.21,0-.47-.12-.63-.26-1.16-1.1-2.14-2.33-3.02-3.66-.06-.09-.11-.18-.19-.32,1.99-.75,3.97-1.01,6.02-.35,2.27.74,3.47,2.51,4.4,4.58Z"/><path class="cls-1" d="M.53,39.83c.03-.12.04-.17.06-.22.68-1.47,1.37-2.94,2.07-4.45,1.81,1.12,3.79,1.4,5.96,1.06-.26.46-.48.86-.72,1.25-.44.72-.88,1.43-1.33,2.14-.06.1-.2.21-.3.21-1.9.01-3.79,0-5.74,0Z"/><path class="cls-1" d="M5.26,21.54s.34-2.06,1.32-2.87c0,0-2.87-2.16-4.78-2.49-1.79-.31-2.34,1.53-1.2,2.31.15.11,4.34,2.46,4.66,3.04Z"/><path class="cls-1" d="M43.09,2.72c-1.3,0-2.61,0-3.9.01-.68.01-1.26-.21-1.83-.6-.95-.63-1.94-1.22-2.93-1.8-.48-.29-1.01-.35-1.57-.32-1.57.1-2.5.44-3.81,1.19-.04.02-.1.05-.15.09-.23.18-.48.48-.37.76.11.28.38.85.65,1,.85.5,1.58,1.33,1.69,2.28.01.11.02.22.01.33.01.09,0,.17-.02.27-.04.31-.17.62-.12.94.05.42.26.43.56.72.56.52.96.94.99,1.62.04,1.16-.35,1.73-.4,2.64-.03.59-.13.99-.39,1.49-.09.18-.52.69-1.2.84-.2.03-.6.12-.76.12-.46,0-.81.07-1.21-.17.28.25.45.33.66.48.06.05-.34-.22-.27-.17.03.02.06.04.1.06.09.05.17.11.28.16.21.11.48.25.83.41.82.32,1.72.44,2.54.23.88-.21,1.74-.49,2.63-.75-.7-1.28-.57-1.68.52-2.69.23-.21,1.16-.8,1.39-.93,1.51-.78,2.41-.98,3.36-1.44,1.07-.51,2.09-1.12,2.53-1.52,1.62-1.45,1.37-1.91,1.41-4.07.01-.8-.42-1.17-1.23-1.17Z"/><path class="cls-1" d="M26.36,2.5c-.53.27-.72.75-1.2,1.09-.44.31-1.06.21-1.54.44-.34.16-.59.47-.8.79-.1.15-.19.3-.23.47-.07.31.06.63.26.87.21.23.49.39.78.52.3.13.61.24.86.44.62.51.66,1.44.51,2.22-.05.28-.12.56-.08.83.06.38.34.7.67.91.33.2.71.31,1.08.43.1.03.21.07.29.14.08.08.13.19.17.3.28.7.81,1.32,1.52,1.57.71.25,1.6.03,2-.6.2-.32.27-.71.33-1.09.1-.61.2-1.22.3-1.83.03-.21.07-.43.03-.64-.14-.8-1.22-1.16-1.41-1.95-.11-.48.15-.97.21-1.46.11-.87-.43-1.73-1.17-2.19-.28-.17-.59-.32-.76-.61-.16-.26-.37-1.03-.37-1.03-.78-.11-1.1.22-1.44.39Z"/></svg>